<?xml version="1.0" encoding="utf-8"?>
<!-- Generator: Adobe Illustrator 21.0.0, SVG Export Plug-In . SVG Version: 6.00 Build 0)  -->
<svg version="1.1" xmlns="http://www.w3.org/2000/svg" xmlns:xlink="http://www.w3.org/1999/xlink" x="0px" y="0px" viewBox="0 0 2000 1466" enable-background="new 0 0 2000 1466" xml:space="preserve">
<g id="CIRCLES">
	<rect x="3.1" y="1.9" fill="#DDE7F1" width="1996.2" height="1470.2"></rect>
	<g id="circles_1_">
		<g>	
			<g>
				<path fill="#E4F0F0" d="M502,736.2c0-271,219.7-490.7,490.7-490.7c271,0,490.7,219.7,490.7,490.7c0,271-219.7,490.7-490.7,490.7
					C721.7,1226.9,502,1007.2,502,736.2z"></path>
				<path fill="none" stroke="#667AAD" stroke-width="2.6544" d="M502,736.2c0-271,219.7-490.7,490.7-490.7
					c271,0,490.7,219.7,490.7,490.7c0,271-219.7,490.7-490.7,490.7C721.7,1226.9,502,1007.2,502,736.2z"></path>
			</g>
		</g>
		<g id="patches_8_">
			<g id="on_15_">
				<g>
					<path fill="#B3E2DD" d="M1042.3,247.9c0,0,37.4,4.3,48.2,6.9c10.8,2.6,46.1,11.7,46.1,11.7l-4.5,14.7l-91-18.3L1042.3,247.9z"></path>
				</g>
			</g>
			<g id="on_14_">
				<g>
					<path fill="#B3E2DD" d="M942.8,1225.2c0,0-35.9-4.9-46.7-7.4c-10.8-2.6-47-12.4-47-12.4l4.5-14.3l90.8,17.5L942.8,1225.2z"></path>
				</g>
			</g>
		</g>
		<g id="patches_7_">
			<g id="on_13_">
				<g>
					<path fill="#B3E2DD" d="M1225.1,303.7c0,0,32.9,18.3,41.9,24.8c9,6.5,38.1,28.4,38.1,28.4l-9.8,11.8l-77.1-51.6L1225.1,303.7z"></path>
				</g>
			</g>
			<g id="on_12_">
				<g>
					<path fill="#B3E2DD" d="M760.2,1168.8c0,0-31.6-18.1-40.6-24.6c-9-6.5-40.1-29.7-40.1-29.7l11.3-13.2l77,52.9L760.2,1168.8z"></path>
				</g>
			</g>
		</g>
		<g id="patches_6_">
			<g id="on_11_">
				<g>
					<path fill="#B3E2DD" d="M1372.9,425.3c0,0,23.4,29.5,29.2,38.9c5.8,9.5,24.4,40.8,24.4,40.8l-13.6,7.2l-51.5-77.2L1372.9,425.3
						z"></path>
				</g>
			</g>
			<g id="on_10_">
				<g>
					<path fill="#B3E2DD" d="M612,1046.2c0,0-21.9-28.1-27.7-37.6C578.5,999.1,559,966,559,966l13.2-7l52.8,76.5L612,1046.2z"></path>
				</g>
			</g>
		</g>
		<g id="patches_5_">
			<g id="on_9_">
				<g>
					<path fill="#B3E2DD" d="M1462.8,594c0,0,10.3,36.2,12.1,47.1c1.8,11,6.9,47,6.9,47l-15.3,1.5l-18.1-91L1462.8,594z"></path>
				</g>
			</g>
			<g id="on_8_">
				<g>
					<path fill="#B3E2DD" d="M522.3,877.2c0,0-9.3-34.6-11.1-45.6c-1.8-11-6.6-48.2-6.6-48.2l15-1.6l17.7,90.3L522.3,877.2z"></path>
				</g>
			</g>
		</g>
		<g id="patches_4_">
			<g id="on_7_">
				<g>
					<path fill="#B3E2DD" d="M1481.4,784.9c0,0-4.3,37.4-6.9,48.2c-2.6,10.8-11.6,46.1-11.6,46.1l-14.7-4.5l18.2-91.5L1481.4,784.9z
						"></path>
				</g>
			</g>
			<g id="on_6_">
				<g>
					<path fill="#B3E2DD" d="M504.2,686.5c0,0,4.6-36,7.2-46.8c2.6-10.8,12.4-47,12.4-47l14.6,3.9l-17.7,91.4L504.2,686.5z"></path>
				</g>
			</g>
		</g>
		<g id="patches_3_">
			<g id="on_5_">
				<g>
					<path fill="#B3E2DD" d="M1425.7,968c0,0-18.3,32.9-24.8,41.9c-6.5,9-29.4,38.7-29.4,38.7l-10.9-9.7l51.9-78.2L1425.7,968z"></path>
				</g>
			</g>
			<g id="on_4_">
				<g>
					<path fill="#B3E2DD" d="M560.4,504.3c0,0,18-32.5,24.5-41.5c6.5-9,29.2-39.3,29.2-39.3l11.5,9.3L575,511L560.4,504.3z"></path>
				</g>
			</g>
		</g>
		<g id="patches_1_">
			<g id="on_1_">
				<g>
					<path fill="#B3E2DD" d="M1135,1206.1c0,0-35.7,10.2-46.7,12c-11,1.8-48.2,6.6-48.2,6.6l-1.4-15.4l90.6-18.3L1135,1206.1z"></path>
				</g>
			</g>
			<g id="on">
				<g>
					<path fill="#B3E2DD" d="M851.1,266.5c0,0,35.7-10.2,46.7-12c11-1.8,48.2-6.6,48.2-6.6l0.8,14.6l-90.1,19L851.1,266.5z"></path>
				</g>
			</g>
		</g>
		<g id="patches_2_">
			<g id="on_3_">
				<g>
					<path fill="#B3E2DD" d="M1304.1,1115.9c0,0-29.1,23.1-38.5,29c-9.4,5.8-41.9,24.5-41.9,24.5l-6.4-13.1l76.1-52.5L1304.1,1115.9
						z"></path>
				</g>
			</g>
			<g id="on_2_">
				<g>
					<path fill="#B3E2DD" d="M682.3,356.1c0,0,28.5-22.4,38-28.3c9.4-5.8,41.9-24.5,41.9-24.5l7.5,12.7l-77.1,52.6L682.3,356.1z"></path>
				</g>
			</g>
		</g>
		<g>
			<line fill="none" stroke="#2285A6" stroke-width="0.8848" x1="945.6" y1="247.9" x2="1039.8" y2="1223.3"></line>
			<line fill="none" stroke="#2285A6" stroke-width="0.8848" x1="851.4" y1="266.5" x2="1134.1" y2="1204.8"></line>
			<line fill="none" stroke="#2285A6" stroke-width="0.8848" x1="762.5" y1="303.1" x2="1223" y2="1168.1"></line>
			<line fill="none" stroke="#2285A6" stroke-width="0.8848" x1="682.5" y1="356.3" x2="1302.9" y2="1114.9"></line>
			<line fill="none" stroke="#2285A6" stroke-width="0.8848" x1="614.8" y1="423.8" x2="1370.7" y2="1047.5"></line>
			<line fill="none" stroke="#2285A6" stroke-width="0.8848" x1="560.9" y1="504" x2="1424.5" y2="967.2"></line>
			<line fill="none" stroke="#2285A6" stroke-width="0.8848" x1="524.1" y1="592.5" x2="1461.3" y2="878.8"></line>
			<line fill="none" stroke="#2285A6" stroke-width="0.8848" x1="505.2" y1="686.5" x2="1480.2" y2="784.8"></line>
			<line fill="none" stroke="#2285A6" stroke-width="0.8848" x1="505" y1="783" x2="1480.4" y2="688.2"></line>
			<line fill="none" stroke="#2285A6" stroke-width="0.8848" x1="523.4" y1="876.6" x2="1462" y2="594.6"></line>
			<line fill="none" stroke="#2285A6" stroke-width="0.8848" x1="560" y1="965.5" x2="1425.5" y2="505.8"></line>
			<line fill="none" stroke="#2285A6" stroke-width="0.8848" x1="613.2" y1="1045.5" x2="1372.3" y2="425.7"></line>
			<line fill="none" stroke="#2285A6" stroke-width="0.8848" x1="680.7" y1="1113.5" x2="1304.7" y2="357.8"></line>
			<line fill="none" stroke="#2285A6" stroke-width="0.8848" x1="760.8" y1="1167.3" x2="1224.6" y2="304"></line>
			<line fill="none" stroke="#2285A6" stroke-width="0.8848" x1="849.4" y1="1204.2" x2="1136" y2="267"></line>
			<line fill="none" stroke="#2285A6" stroke-width="0.8848" x1="943.2" y1="1223.1" x2="1042.3" y2="248.1"></line>
		</g>
		<path fill="#FFFFFF" stroke="#6679B5" stroke-width="1.1192" d="M516.8,736.2c0-262.9,213.1-476,476-476s476,213.1,476,476
			c0,262.9-213.1,476-476,476S516.8,999.1,516.8,736.2z"></path>
		<path fill="none" stroke="#6679B5" stroke-width="1.1192" d="M516.8,735.6c0-262.9,213.1-476,476-476s476,213.1,476,476
			c0,262.9-213.1,476-476,476S516.8,998.5,516.8,735.6z"></path>
		<g>
			<path fill="none" stroke="#667AAD" stroke-width="2.6544" d="M502,736.2c0-271,219.7-490.7,490.7-490.7
				c271,0,490.7,219.7,490.7,490.7c0,271-219.7,490.7-490.7,490.7C721.7,1226.9,502,1007.2,502,736.2z"></path>
			<path display="none" fill="#E4F0F0" stroke="#667AAD" stroke-width="2.6544" d="M992.7,245.5c-271,0-490.7,219.7-490.7,490.7
				c0,271,219.7,490.7,490.7,490.7c271,0,490.7-219.7,490.7-490.7C1483.4,465.2,1263.7,245.5,992.7,245.5z M992.7,1212.2
				c-262.9,0-476-213.1-476-476c0-262.9,213.1-476,476-476s476,213.1,476,476C1468.7,999.1,1255.6,1212.2,992.7,1212.2z"></path>
			<path display="none" fill="#FFFFFF" stroke="#6679B5" stroke-width="1.1192" d="M992.7,260.3c-262.9,0-476,213.1-476,476
				c0,262.9,213.1,476,476,476s476-213.1,476-476C1468.7,473.4,1255.6,260.3,992.7,260.3z"></path>
		</g>
	</g>
	<g>
		<rect x="855.6" y="-443.5" fill="none" width="101" height="54.1"></rect>
	</g>
</g>
<g id="ARROWS">
	<g id="Layer_10">
	</g>
	<polygon fill="#CFECCF" stroke="#327D71" points="1438.7,762.6 1449.9,736.2 1438.7,709.9 1501.2,736.2 	"></polygon>
	<polygon fill="#CFECCF" stroke="#327D71" points="546.8,762.6 535.6,736.2 546.8,709.9 484.3,736.2 	"></polygon>
	<polygon fill="#CFECCF" stroke="#327D71" points="1019.1,283.2 992.7,272 966.3,283.2 992.7,220.7 	"></polygon>
	<polygon fill="#CFECCF" stroke="#327D71" points="1019.1,1188.1 992.7,1199.3 966.3,1188.1 992.7,1250.6 	"></polygon>
	<g>
		<polygon fill="#CFECCF" stroke="#48B5A3" stroke-width="0.8848" points="917.9,305 905.4,302.4 894.8,309.6 900.8,279.9 		"></polygon>
		<polygon fill="#CFECCF" stroke="#48B5A3" stroke-width="0.8848" points="1067.2,1167.5 1080,1170.1 1090.7,1162.7 1084.6,1193 		
			"></polygon>
	</g>
	<g>
		<polygon fill="#CFECCF" stroke="#48B5A3" stroke-width="0.8848" points="837.8,326.9 824.9,326.7 815.9,335.8 816.2,305.4 		"></polygon>
		<polygon fill="#CFECCF" stroke="#48B5A3" stroke-width="0.8848" points="1147.3,1145.6 1160.3,1145.8 1169.5,1136.5 
			1169.2,1167.4 		"></polygon>
	</g>
	<g>
		<polygon fill="#CFECCF" stroke="#48B5A3" stroke-width="0.8848" points="760.8,365 748.2,367.3 741.1,378.1 735.5,348.2 		"></polygon>
		<polygon fill="#CFECCF" stroke="#48B5A3" stroke-width="0.8848" points="1224.2,1107.6 1237.1,1105.2 1244.3,1094.3 1250,1124.6 
					"></polygon>
	</g>
	<g>
		<polygon fill="#CFECCF" stroke="#48B5A3" stroke-width="0.8848" points="692.4,417.8 680.5,422.5 675.6,434.4 664.3,406.2 		"></polygon>
		<polygon fill="#CFECCF" stroke="#48B5A3" stroke-width="0.8848" points="1292.6,1054.9 1304.7,1050 1309.6,1038 1321.2,1066.6 		
			"></polygon>
	</g>
	<g>
		<polygon fill="#CFECCF" stroke="#48B5A3" stroke-width="0.8848" points="635.5,483.1 624.8,490.2 622.4,502.8 605.7,477.4 		"></polygon>
		<polygon fill="#CFECCF" stroke="#48B5A3" stroke-width="0.8848" points="1349.4,989.6 1360.4,982.5 1362.8,969.7 1379.8,995.4 		
			"></polygon>
	</g>
	<g>
		<polygon fill="#CFECCF" stroke="#48B5A3" stroke-width="0.8848" points="593.6,556.2 584.4,565.2 584.5,578 563.2,556.3 		"></polygon>
		<polygon fill="#CFECCF" stroke="#48B5A3" stroke-width="0.8848" points="1391.3,916.6 1400.7,907.5 1400.6,894.5 1422.2,916.5 		
			"></polygon>
	</g>
	<g>
		<polygon fill="#CFECCF" stroke="#48B5A3" stroke-width="0.8848" points="565.9,638.4 558.7,649 561.3,661.6 536.2,644.5 		"></polygon>
		<polygon fill="#CFECCF" stroke="#48B5A3" stroke-width="0.8848" points="1419,834.5 1426.4,823.8 1423.8,811 1449.3,828.4 		"></polygon>
	</g>
	<g>
		<polygon fill="#CFECCF" stroke="#48B5A3" stroke-width="0.8848" points="561.3,811.2 558.7,823.7 565.9,834.3 536.1,828.3 		"></polygon>
		<polygon fill="#CFECCF" stroke="#48B5A3" stroke-width="0.8848" points="1423.8,661.9 1426.4,649.2 1419,638.4 1449.3,644.5 		"></polygon>
	</g>
	<g>
		<polygon fill="#CFECCF" stroke="#48B5A3" stroke-width="0.8848" points="582.8,890.5 582.7,903.4 591.8,912.4 561.4,912 		"></polygon>
		<polygon fill="#CFECCF" stroke="#48B5A3" stroke-width="0.8848" points="1402.2,582.7 1402.4,569.6 1393.2,560.4 1424.1,560.8 		
			"></polygon>
	</g>
	<g>
		<polygon fill="#CFECCF" stroke="#48B5A3" stroke-width="0.8848" points="621.5,968.6 623.8,981.2 634.5,988.3 604.7,993.9 		"></polygon>
		<polygon fill="#CFECCF" stroke="#48B5A3" stroke-width="0.8848" points="1363.7,504.6 1361.3,491.8 1350.4,484.6 1380.8,478.9 		
			"></polygon>
	</g>
	<g>
		<polygon fill="#CFECCF" stroke="#48B5A3" stroke-width="0.8848" points="672.6,1035.2 677.3,1047.1 689.2,1052 660.9,1063.2 		"></polygon>
		<polygon fill="#CFECCF" stroke="#48B5A3" stroke-width="0.8848" points="1312.7,438.1 1307.9,426 1295.8,421 1324.5,409.6 		"></polygon>
	</g>
	<g>
		<polygon fill="#CFECCF" stroke="#48B5A3" stroke-width="0.8848" points="737.8,1092.4 744.7,1103.2 757.3,1105.6 731.9,1122.2 		
			"></polygon>
		<polygon fill="#CFECCF" stroke="#48B5A3" stroke-width="0.8848" points="1247.6,380.9 1240.5,369.9 1227.7,367.4 1253.6,350.6 		
			"></polygon>
	</g>
	<g>
		<polygon fill="#CFECCF" stroke="#48B5A3" stroke-width="0.8848" points="812.2,1135.3 821.1,1144.6 834,1144.5 812.2,1165.7 		"></polygon>
		<polygon fill="#CFECCF" stroke="#48B5A3" stroke-width="0.8848" points="1173.2,338 1164.2,328.6 1151.1,328.7 1173.2,307.1 		"></polygon>
	</g>
	<g>
		<polygon fill="#CFECCF" stroke="#48B5A3" stroke-width="0.8848" points="895.4,1163.4 906,1170.6 918.6,1168 901.5,1193.1 		"></polygon>
		<polygon fill="#CFECCF" stroke="#48B5A3" stroke-width="0.8848" points="1090.1,310 1079.3,302.6 1066.6,305.2 1083.9,279.7 		"></polygon>
	</g>
</g>
<g id="NESW">
	<g>
		
			<text transform="matrix(1 0 0 1 1378.2549 747.9396)" fill="#017599" font-family="'Verdana-Bold'" font-weight="bold" font-size="41.8309px" letter-spacing="1">E</text>
		
			<text transform="matrix(1 0 0 1 572.0386 747.9396)" fill="#017599" font-family="'Verdana-Bold'" font-weight="bold" font-size="41.8309px" letter-spacing="1">W</text>
	</g>
	<g>
		
			<text transform="matrix(1 0 0 1 975.8438 1157.1221)" fill="#017599" font-family="'Verdana-Bold'" font-weight="bold" font-size="41.8309px" letter-spacing="1">S</text>
		
			<text transform="matrix(1 0 0 1 974.4835 339.4546)" fill="#017599" font-family="'Verdana-Bold'" font-weight="bold" font-size="41.8309px" letter-spacing="1">N</text>
	</g>
</g>
<g id="CENTRE_CIRCLES">
	<circle fill="none" stroke="#7589BF" stroke-width="0.5" cx="992.7" cy="735.6" r="61.7"></circle>
	<circle fill="none" stroke="#7589BF" stroke-width="0.25" cx="992.7" cy="735.6" r="72.5"></circle>
	<radialGradient id="SVGID_1_" cx="990.6667" cy="732" r="15" gradientUnits="userSpaceOnUse">
		<stop offset="0" style="stop-color:#FFFFFF"></stop>
		<stop offset="4.838297e-02" style="stop-color:#E2E2E2"></stop>
		<stop offset="0.1143" style="stop-color:#C1C1C1"></stop>
		<stop offset="0.188" style="stop-color:#A4A4A4"></stop>
		<stop offset="0.2702" style="stop-color:#8D8D8D"></stop>
		<stop offset="0.3645" style="stop-color:#7C7C7C"></stop>
		<stop offset="0.4783" style="stop-color:#6F6F6F"></stop>
		<stop offset="0.6319" style="stop-color:#686868"></stop>
		<stop offset="0.9962" style="stop-color:#666666"></stop>
	</radialGradient>
	<circle opacity="0.78" fill="url(#SVGID_1_)" cx="993" cy="735" r="15"></circle>
</g>
<g id="TEXT">
	<line fill="none" x1="884" y1="257.8" x2="1101.5" y2="1213.4"></line>
	<text transform="matrix(0.222 0.9751 -0.9751 0.222 899.3438 325.4243)"><tspan x="0" y="0" fill="#707070" font-family="'Verdana'" font-size="30.8442px">N</tspan><tspan x="23.8" y="0" fill="#707070" font-family="'Verdana'" font-size="30.8442px"> </tspan><tspan x="35.4" y="0" fill="#707070" font-family="'Verdana'" font-size="30.8442px">b</tspan><tspan x="55.4" y="0" fill="#707070" font-family="'Verdana'" font-size="30.8442px">y</tspan><tspan x="74.4" y="0" fill="#707070" font-family="'Verdana'" font-size="30.8442px"> </tspan><tspan x="86" y="0" fill="#707070" font-family="'Verdana'" font-size="30.8442px">W</tspan></text>
	<line fill="none" x1="797.8" y1="302.2" x2="1197.6" y2="1197"></line>
	<text transform="matrix(0.4079 0.913 -0.913 0.4079 819.7822 351.3452)"><tspan x="0" y="0" fill="#707070" font-family="'Verdana'" font-size="30.8437px">N</tspan><tspan x="23.8" y="0" fill="#707070" font-family="'Verdana'" font-size="30.8437px">N</tspan><tspan x="47.7" y="0" fill="#707070" font-family="'Verdana'" font-size="30.8437px">W</tspan></text>
	<line fill="none" x1="709.3" y1="335.9" x2="1276.1" y2="1135.4"></line>
	<text transform="matrix(0.5783 0.8158 -0.8158 0.5783 750.7041 394.2441)"><tspan x="0" y="0" fill="#707070" font-family="'Verdana'" font-size="30.8438px">N</tspan><tspan x="23.8" y="0" fill="#707070" font-family="'Verdana'" font-size="30.8438px">W</tspan><tspan x="55.1" y="0" fill="#707070" font-family="'Verdana'" font-size="30.8438px"> </tspan><tspan x="66.7" y="0" fill="#707070" font-family="'Verdana'" font-size="30.8438px">b</tspan><tspan x="86.6" y="0" fill="#707070" font-family="'Verdana'" font-size="30.8438px">y</tspan><tspan x="105.6" y="0" fill="#707070" font-family="'Verdana'" font-size="30.8438px"> </tspan><tspan x="117.3" y="0" fill="#707070" font-family="'Verdana'" font-size="30.8438px">N</tspan></text>
	<line fill="none" x1="636.8" y1="398.8" x2="1348.6" y2="1072.4"></line>
	<text transform="matrix(0.7264 0.6873 -0.6873 0.7264 687.2422 446.5615)"><tspan x="0" y="0" fill="#017599" font-family="'Verdana'" font-size="30.8443px">N</tspan><tspan x="23.8" y="0" fill="#017599" font-family="'Verdana'" font-size="30.8443px">W</tspan></text>
	<line fill="none" x1="578.2" y1="474.3" x2="1407.2" y2="996.9"></line>
	<text transform="matrix(0.846 0.5332 -0.5332 0.846 638.2656 512.2061)"><tspan x="0" y="0" fill="#707070" font-family="'Verdana'" font-size="30.8438px">N</tspan><tspan x="23.9" y="0" fill="#707070" font-family="'Verdana'" font-size="30.8438px">W</tspan><tspan x="55.1" y="0" fill="#707070" font-family="'Verdana'" font-size="30.8438px"> </tspan><tspan x="66.8" y="0" fill="#707070" font-family="'Verdana'" font-size="30.8438px">b</tspan><tspan x="86.7" y="0" fill="#707070" font-family="'Verdana'" font-size="30.8438px">y</tspan><tspan x="105.7" y="0" fill="#707070" font-family="'Verdana'" font-size="30.8438px"> </tspan><tspan x="117.3" y="0" fill="#707070" font-family="'Verdana'" font-size="30.8438px">W</tspan></text>
	<line fill="none" x1="551.6" y1="564.1" x2="1467.1" y2="913.8"></line>
	<text transform="matrix(0.9342 0.3568 -0.3568 0.9342 601.5158 583.1653)"><tspan x="0" y="0" fill="#707070" font-family="'Verdana'" font-size="30.8437px">W</tspan><tspan x="31.3" y="0" fill="#707070" font-family="'Verdana'" font-size="30.8437px">N</tspan><tspan x="55.1" y="0" fill="#707070" font-family="'Verdana'" font-size="30.8437px">W</tspan></text>
	<line fill="none" x1="526.5" y1="653.4" x2="1491" y2="827.2"></line>
	<text transform="matrix(0.9842 0.1773 -0.1773 0.9842 579.3369 662.9447)"><tspan x="0" y="0" fill="#707070" font-family="'Verdana'" font-size="30.8442px">W</tspan><tspan x="31.3" y="0" fill="#707070" font-family="'Verdana'" font-size="30.8442px"> </tspan><tspan x="42.9" y="0" fill="#707070" font-family="'Verdana'" font-size="30.8442px">b</tspan><tspan x="62.8" y="0" fill="#707070" font-family="'Verdana'" font-size="30.8442px">y</tspan><tspan x="81.8" y="0" fill="#707070" font-family="'Verdana'" font-size="30.8442px"> </tspan><tspan x="93.5" y="0" fill="#707070" font-family="'Verdana'" font-size="30.8442px">N</tspan></text>
	<line fill="none" x1="515" y1="844.6" x2="1470.4" y2="626.6"></line>
	<text transform="matrix(0.9749 -0.2225 0.2225 0.9749 584.4712 828.7754)"><tspan x="0" y="0" fill="#707070" font-family="'Verdana'" font-size="30.8442px">W</tspan><tspan x="31.3" y="0" fill="#707070" font-family="'Verdana'" font-size="30.8442px"> </tspan><tspan x="42.9" y="0" fill="#707070" font-family="'Verdana'" font-size="30.8442px">b</tspan><tspan x="62.8" y="0" fill="#707070" font-family="'Verdana'" font-size="30.8442px">y</tspan><tspan x="81.8" y="0" fill="#707070" font-family="'Verdana'" font-size="30.8442px"> </tspan><tspan x="93.5" y="0" fill="#707070" font-family="'Verdana'" font-size="30.8442px">S</tspan></text>
	<line fill="none" x1="545.2" y1="935.2" x2="1440.2" y2="536.1"></line>
	<text transform="matrix(0.9133 -0.4072 0.4072 0.9133 612.4136 905.1787)"><tspan x="0" y="0" fill="#707070" font-family="'Verdana'" font-size="30.8437px">W</tspan><tspan x="31.3" y="0" fill="#707070" font-family="'Verdana'" font-size="30.8437px">S</tspan><tspan x="53.1" y="0" fill="#707070" font-family="'Verdana'" font-size="30.8437px">W</tspan></text>
	<line fill="none" x1="592.7" y1="1018.6" x2="1392.7" y2="452.6"></line>
	<text transform="matrix(0.8163 -0.5776 0.5776 0.8163 651.3403 977.1426)"><tspan x="0" y="0" fill="#707070" font-family="'Verdana'" font-size="30.8438px">S</tspan><tspan x="21.8" y="0" fill="#707070" font-family="'Verdana'" font-size="30.8438px">W</tspan><tspan x="53.1" y="0" fill="#707070" font-family="'Verdana'" font-size="30.8438px"> </tspan><tspan x="64.7" y="0" fill="#707070" font-family="'Verdana'" font-size="30.8438px">b</tspan><tspan x="84.6" y="0" fill="#707070" font-family="'Verdana'" font-size="30.8438px">y</tspan><tspan x="103.7" y="0" fill="#707070" font-family="'Verdana'" font-size="30.8438px"> </tspan><tspan x="115.3" y="0" fill="#707070" font-family="'Verdana'" font-size="30.8438px">W</tspan></text>
	<line fill="none" x1="655.7" y1="1091.3" x2="1329.8" y2="380"></line>
	<text transform="matrix(0.6879 -0.7258 0.7258 0.6879 704.3145 1039.9502)"><tspan x="0" y="0" fill="#017599" font-family="'Verdana'" font-size="30.8443px">S</tspan><tspan x="21.9" y="0" fill="#017599" font-family="'Verdana'" font-size="30.8443px">W</tspan></text>
	<line fill="none" x1="731.3" y1="1150.1" x2="1254.1" y2="321.2"></line>
	<text transform="matrix(0.5334 -0.8458 0.8458 0.5334 770.0908 1088.6133)"><tspan x="0" y="0" fill="#707070" font-family="'Verdana'" font-size="30.8438px">S</tspan><tspan x="21.9" y="0" fill="#707070" font-family="'Verdana'" font-size="30.8438px">W</tspan><tspan x="53.1" y="0" fill="#707070" font-family="'Verdana'" font-size="30.8438px"> </tspan><tspan x="64.7" y="0" fill="#707070" font-family="'Verdana'" font-size="30.8438px">b</tspan><tspan x="84.7" y="0" fill="#707070" font-family="'Verdana'" font-size="30.8438px">y</tspan><tspan x="103.7" y="0" fill="#707070" font-family="'Verdana'" font-size="30.8438px"> </tspan><tspan x="115.3" y="0" fill="#707070" font-family="'Verdana'" font-size="30.8438px">S</tspan></text>
	<line fill="none" x1="817.6" y1="1193.3" x2="1167.8" y2="278"></line>
	<text transform="matrix(0.3574 -0.934 0.934 0.3574 842.5498 1128.0322)"><tspan x="0" y="0" fill="#707070" font-family="'Verdana'" font-size="30.8437px">S</tspan><tspan x="21.5" y="0" fill="#707070" font-family="'Verdana'" font-size="30.8437px">S</tspan><tspan x="43.4" y="0" fill="#707070" font-family="'Verdana'" font-size="30.8437px">W</tspan></text>
	<line fill="none" x1="910.2" y1="1218.6" x2="1075.2" y2="252.6"></line>
	<text transform="matrix(0.1684 -0.9857 0.9857 0.1684 922.0195 1149.3428)"><tspan x="0" y="0" fill="#707070" font-family="'Verdana'" font-size="30.8442px">S</tspan><tspan x="21.9" y="0" fill="#707070" font-family="'Verdana'" font-size="30.8442px"> </tspan><tspan x="33.5" y="0" fill="#707070" font-family="'Verdana'" font-size="30.8442px">b</tspan><tspan x="53.4" y="0" fill="#707070" font-family="'Verdana'" font-size="30.8442px">y</tspan><tspan x="72.4" y="0" fill="#707070" font-family="'Verdana'" font-size="30.8442px"> </tspan><tspan x="84" y="0" fill="#707070" font-family="'Verdana'" font-size="30.8442px">W</tspan></text>
	<line fill="none" x1="911.6" y1="252.4" x2="1073.8" y2="1218.9"></line>
	<text transform="matrix(0.1655 0.9862 -0.9862 0.1655 1044.6541 1045.0922)"><tspan x="0" y="0" fill="#707070" font-family="'Verdana'" font-size="30.8442px">S</tspan><tspan x="21.9" y="0" fill="#707070" font-family="'Verdana'" font-size="30.8442px"> </tspan><tspan x="33.5" y="0" fill="#707070" font-family="'Verdana'" font-size="30.8442px">b</tspan><tspan x="53.4" y="0" fill="#707070" font-family="'Verdana'" font-size="30.8442px">y</tspan><tspan x="72.4" y="0" fill="#707070" font-family="'Verdana'" font-size="30.8442px"> </tspan><tspan x="84" y="0" fill="#707070" font-family="'Verdana'" font-size="30.8442px">E</tspan></text>
	<line fill="none" x1="818.8" y1="277.5" x2="1166.6" y2="1193.7"></line>
	<text transform="matrix(0.3549 0.9349 -0.9349 0.3549 1117.0513 1063.1462)"><tspan x="0" y="0" fill="#707070" font-family="'Verdana'" font-size="30.8437px">S</tspan><tspan x="21.5" y="0" fill="#707070" font-family="'Verdana'" font-size="30.8437px">S</tspan><tspan x="43.4" y="0" fill="#707070" font-family="'Verdana'" font-size="30.8437px">E</tspan></text>
	<line fill="none" x1="732.8" y1="320.2" x2="1252.6" y2="1151"></line>
	<text transform="matrix(0.5304 0.8477 -0.8477 0.5304 1149.587 986.3241)"><tspan x="0" y="0" fill="#707070" font-family="'Verdana'" font-size="30.8438px">S</tspan><tspan x="21.9" y="0" fill="#707070" font-family="'Verdana'" font-size="30.8438px">E</tspan><tspan x="42.1" y="0" fill="#707070" font-family="'Verdana'" font-size="30.8438px"> </tspan><tspan x="53.8" y="0" fill="#707070" font-family="'Verdana'" font-size="30.8438px">b</tspan><tspan x="73.7" y="0" fill="#707070" font-family="'Verdana'" font-size="30.8438px">y</tspan><tspan x="92.7" y="0" fill="#707070" font-family="'Verdana'" font-size="30.8438px"> </tspan><tspan x="104.3" y="0" fill="#707070" font-family="'Verdana'" font-size="30.8438px">S</tspan></text>
	<line fill="none" x1="657.1" y1="378.6" x2="1328.3" y2="1092.6"></line>
	<text transform="matrix(0.6849 0.7286 -0.7286 0.6849 1250.8809 1010.2463)"><tspan x="0" y="0" fill="#017599" font-family="'Verdana'" font-size="30.8443px">S</tspan><tspan x="21.9" y="0" fill="#017599" font-family="'Verdana'" font-size="30.8443px">E</tspan></text>
	<line fill="none" x1="593.6" y1="451.4" x2="1391.9" y2="1019.8"></line>
	<text transform="matrix(0.8146 0.58 -0.58 0.8146 1234.3289 907.6493)"><tspan x="0" y="0" fill="#707070" font-family="'Verdana'" font-size="30.8438px">S</tspan><tspan x="21.9" y="0" fill="#707070" font-family="'Verdana'" font-size="30.8438px">E</tspan><tspan x="42.2" y="0" fill="#707070" font-family="'Verdana'" font-size="30.8438px"> </tspan><tspan x="53.7" y="0" fill="#707070" font-family="'Verdana'" font-size="30.8438px">b</tspan><tspan x="73.7" y="0" fill="#707070" font-family="'Verdana'" font-size="30.8438px">y</tspan><tspan x="92.7" y="0" fill="#707070" font-family="'Verdana'" font-size="30.8438px"> </tspan><tspan x="104.3" y="0" fill="#707070" font-family="'Verdana'" font-size="30.8438px">E</tspan></text>
	<line fill="none" x1="545.9" y1="534.5" x2="1439.6" y2="936.7"></line>
	<text transform="matrix(0.9119 0.4104 -0.4104 0.9119 1319.7866 882.8134)"><tspan x="0" y="0" fill="#707070" font-family="'Verdana'" font-size="30.8437px">E</tspan><tspan x="20.3" y="0" fill="#707070" font-family="'Verdana'" font-size="30.8437px">S</tspan><tspan x="42.1" y="0" fill="#707070" font-family="'Verdana'" font-size="30.8437px">E</tspan></text>
	<line fill="none" x1="515.3" y1="625.4" x2="1470.2" y2="845.8"></line>
	<text transform="matrix(0.9744 0.2249 -0.2249 0.9744 1302.724 807.1894)"><tspan x="0" y="0" fill="#707070" font-family="'Verdana'" font-size="30.8442px">E</tspan><tspan x="20.3" y="0" fill="#707070" font-family="'Verdana'" font-size="30.8442px"> </tspan><tspan x="31.9" y="0" fill="#707070" font-family="'Verdana'" font-size="30.8442px">b</tspan><tspan x="51.8" y="0" fill="#707070" font-family="'Verdana'" font-size="30.8442px">y</tspan><tspan x="70.8" y="0" fill="#707070" font-family="'Verdana'" font-size="30.8442px"> </tspan><tspan x="82.4" y="0" fill="#707070" font-family="'Verdana'" font-size="30.8442px">S</tspan></text>
	<line fill="none" x1="509.4" y1="816.4" x2="1476" y2="654.9"></line>
	<text transform="matrix(0.9863 -0.1648 0.1648 0.9863 1303.7593 683.6581)"><tspan x="0" y="0" fill="#707070" font-family="'Verdana'" font-size="30.8442px">E</tspan><tspan x="20.3" y="0" fill="#707070" font-family="'Verdana'" font-size="30.8442px"> </tspan><tspan x="31.9" y="0" fill="#707070" font-family="'Verdana'" font-size="30.8442px">b</tspan><tspan x="51.8" y="0" fill="#707070" font-family="'Verdana'" font-size="30.8442px">y</tspan><tspan x="70.8" y="0" fill="#707070" font-family="'Verdana'" font-size="30.8442px"> </tspan><tspan x="82.4" y="0" fill="#707070" font-family="'Verdana'" font-size="30.8442px">N</tspan></text>
	<line fill="none" x1="534.4" y1="909.1" x2="1451" y2="562.2"></line>
	<text transform="matrix(0.9352 -0.354 0.354 0.9352 1326.3629 609.3218)"><tspan x="0" y="0" fill="#707070" font-family="'Verdana'" font-size="30.8437px">E</tspan><tspan x="20.3" y="0" fill="#707070" font-family="'Verdana'" font-size="30.8437px">N</tspan><tspan x="44.1" y="0" fill="#707070" font-family="'Verdana'" font-size="30.8437px">E</tspan></text>
	<line fill="none" x1="577.1" y1="995.2" x2="1408.3" y2="476"></line>
	<text transform="matrix(0.8481 -0.5298 0.5298 0.8481 1242.37 579.6576)"><tspan x="0" y="0" fill="#707070" font-family="'Verdana'" font-size="30.8438px">N</tspan><tspan x="23.8" y="0" fill="#707070" font-family="'Verdana'" font-size="30.8438px">E</tspan><tspan x="44.1" y="0" fill="#707070" font-family="'Verdana'" font-size="30.8438px"> </tspan><tspan x="55.7" y="0" fill="#707070" font-family="'Verdana'" font-size="30.8438px">b</tspan><tspan x="75.6" y="0" fill="#707070" font-family="'Verdana'" font-size="30.8438px">y</tspan><tspan x="94.7" y="0" fill="#707070" font-family="'Verdana'" font-size="30.8438px"> </tspan><tspan x="106.3" y="0" fill="#707070" font-family="'Verdana'" font-size="30.8438px">E</tspan></text>
	<line fill="none" x1="635.6" y1="1071.1" x2="1349.8" y2="400.1"></line>
	<text transform="matrix(0.7288 -0.6847 0.6847 0.7288 1265.1505 479.651)"><tspan x="0" y="0" fill="#017599" font-family="'Verdana'" font-size="30.8443px">N</tspan><tspan x="23.8" y="0" fill="#017599" font-family="'Verdana'" font-size="30.8443px">E</tspan></text>
	<line fill="none" x1="708.3" y1="1134.6" x2="1277.2" y2="336.6"></line>
	<text transform="matrix(0.5805 -0.8143 0.8143 0.5805 1162.8145 497.0305)"><tspan x="0" y="0" fill="#707070" font-family="'Verdana'" font-size="30.8438px">N</tspan><tspan x="23.9" y="0" fill="#707070" font-family="'Verdana'" font-size="30.8438px">E</tspan><tspan x="44.1" y="0" fill="#707070" font-family="'Verdana'" font-size="30.8438px"> </tspan><tspan x="55.7" y="0" fill="#707070" font-family="'Verdana'" font-size="30.8438px">b</tspan><tspan x="75.6" y="0" fill="#707070" font-family="'Verdana'" font-size="30.8438px">y</tspan><tspan x="94.7" y="0" fill="#707070" font-family="'Verdana'" font-size="30.8438px"> </tspan><tspan x="106.3" y="0" fill="#707070" font-family="'Verdana'" font-size="30.8438px">N</tspan></text>
	<line fill="none" x1="784.2" y1="1196.4" x2="1186.6" y2="302.8"></line>
	<text transform="matrix(0.4106 -0.9118 0.9118 0.4106 1136.7798 413.4164)"><tspan x="0" y="0" fill="#707070" font-family="'Verdana'" font-size="30.8437px">N</tspan><tspan x="23.8" y="0" fill="#707070" font-family="'Verdana'" font-size="30.8437px">N</tspan><tspan x="47.7" y="0" fill="#707070" font-family="'Verdana'" font-size="30.8437px">E</tspan></text>
	<line fill="none" x1="882.1" y1="1213" x2="1103.3" y2="258.3"></line>
	<text transform="matrix(0.2257 -0.9742 0.9742 0.2257 1063.4402 430.3246)"><tspan x="0" y="0" fill="#707070" font-family="'Verdana'" font-size="30.8442px">N</tspan><tspan x="23.9" y="0" fill="#707070" font-family="'Verdana'" font-size="30.8442px"> </tspan><tspan x="35.4" y="0" fill="#707070" font-family="'Verdana'" font-size="30.8442px">b</tspan><tspan x="55.4" y="0" fill="#707070" font-family="'Verdana'" font-size="30.8442px">y</tspan><tspan x="74.4" y="0" fill="#707070" font-family="'Verdana'" font-size="30.8442px"> </tspan><tspan x="86" y="0" fill="#707070" font-family="'Verdana'" font-size="30.8442px">E</tspan></text>
	<g id="CENTRE_TEXT">
		<circle fill="none" cx="997.3" cy="736.2" r="145.7"></circle>
		
			<text transform="matrix(-0.7578 -0.4855 0.5394 -0.8421 928.7588 865.3682)" fill="#64A3A1" font-family="'Georgia'" font-weight="bold" font-size="38.345px">T</text>
		
			<text transform="matrix(-0.6555 -0.6167 0.6852 -0.7284 906.1045 850.4688)" fill="#64A3A1" font-family="'Georgia'" font-weight="bold" font-size="38.345px">u</text>
		
			<text transform="matrix(-0.5329 -0.7252 0.8058 -0.5921 886.5859 831.624)" fill="#64A3A1" font-family="'Georgia'" font-weight="bold" font-size="38.345px">p</text>
		
			<text transform="matrix(-0.3918 -0.8103 0.9003 -0.4353 871.2012 810.208)" fill="#64A3A1" font-family="'Georgia'" font-weight="bold" font-size="38.345px">u</text>
		
			<text transform="matrix(-0.2683 -0.8591 0.9545 -0.2981 860.0273 785.5518)" fill="#64A3A1" font-family="'Georgia'" font-weight="bold" font-size="38.345px">l</text>
		
			<text transform="matrix(-0.1842 -0.8809 0.9788 -0.2047 855.5869 770.4902)" fill="#64A3A1" font-family="'Georgia'" font-weight="bold" font-size="38.345px"> </text>
		
			<text transform="matrix(-8.934465e-02 -0.8956 0.9951 -9.927183e-02 853.0957 758.5371)" fill="#64A3A1" font-family="'Georgia'" font-weight="bold" font-size="38.345px">(</text>
		
			<text transform="matrix(4.715969e-02 -0.8988 0.9986 5.239966e-02 851.2158 739.7168)" fill="#64A3A1" font-family="'Georgia'" font-weight="bold" font-size="38.345px">S</text>
		
			<text transform="matrix(0.1959 -0.8784 0.976 0.2177 853.0039 713.751)" fill="#64A3A1" font-family="'Georgia'" font-weight="bold" font-size="38.345px">e</text>
		
			<text transform="matrix(0.3166 -0.8425 0.9361 0.3518 858.3389 691.7158)" fill="#64A3A1" font-family="'Georgia'" font-weight="bold" font-size="38.345px">t</text>
		
			<text transform="matrix(0.4177 -0.7972 0.8858 0.4641 864.8252 675.0684)" fill="#64A3A1" font-family="'Georgia'" font-weight="bold" font-size="38.345px">t</text>
		
			<text transform="matrix(0.5075 -0.7433 0.8259 0.5639 873.3291 659.3848)" fill="#64A3A1" font-family="'Georgia'" font-weight="bold" font-size="38.345px">i</text>
		
			<text transform="matrix(0.6115 -0.6603 0.7337 0.6795 882.2891 645.9873)" fill="#64A3A1" font-family="'Georgia'" font-weight="bold" font-size="38.345px">n</text>
		
			<text transform="matrix(0.7205 -0.5393 0.5992 0.8006 901.1152 626.2168)" fill="#64A3A1" font-family="'Georgia'" font-weight="bold" font-size="38.345px">g</text>
		
			<text transform="matrix(0.7945 -0.4228 0.4698 0.8828 922.1416 611.1445)" fill="#64A3A1" font-family="'Georgia'" font-weight="bold" font-size="38.345px">)</text>
		<circle fill="none" cx="997.3" cy="736.2" r="145.7"></circle>
		
			<text transform="matrix(0.6524 0.62 -0.6888 0.7249 1089.0947 622.4561)" fill="#64A3A1" font-family="'Georgia'" font-weight="bold" font-size="38.345px">T</text>
		
			<text transform="matrix(0.5295 0.7277 -0.8086 0.5883 1108.4941 641.3799)" fill="#64A3A1" font-family="'Georgia'" font-weight="bold" font-size="38.345px">a</text>
		
			<text transform="matrix(0.3877 0.8122 -0.9024 0.4308 1123.7344 662.7871)" fill="#64A3A1" font-family="'Georgia'" font-weight="bold" font-size="38.345px">n</text>
		
			<text transform="matrix(0.2736 0.8574 -0.9527 0.304 1134.8018 687.7109)" fill="#64A3A1" font-family="'Georgia'" font-weight="bold" font-size="38.345px"> </text>
		
			<text transform="matrix(0.1801 0.8818 -0.9798 0.2001 1138.5117 699.3643)" fill="#64A3A1" font-family="'Georgia'" font-weight="bold" font-size="38.345px">(</text>
		
			<text transform="matrix(2.794880e-02 0.8996 -0.9995 3.105423e-02 1142.5039 717.8652)" fill="#64A3A1" font-family="'Georgia'" font-weight="bold" font-size="38.345px">R</text>
		
			<text transform="matrix(-0.1154 0.8926 -0.9917 -0.1282 1142.6025 748.8379)" fill="#64A3A1" font-family="'Georgia'" font-weight="bold" font-size="38.345px">i</text>
		
			<text transform="matrix(-0.2292 0.8703 -0.967 -0.2546 1140.4844 764.7998)" fill="#64A3A1" font-family="'Georgia'" font-weight="bold" font-size="38.345px">s</text>
		
			<text transform="matrix(-0.3394 0.8335 -0.9261 -0.3772 1134.6787 785.3018)" fill="#64A3A1" font-family="'Georgia'" font-weight="bold" font-size="38.345px">i</text>
		
			<text transform="matrix(-0.4596 0.7738 -0.8598 -0.5107 1128.7402 800.293)" fill="#64A3A1" font-family="'Georgia'" font-weight="bold" font-size="38.345px">n</text>
		
			<text transform="matrix(-0.5919 0.678 -0.7533 -0.6577 1114.4688 823.5664)" fill="#64A3A1" font-family="'Georgia'" font-weight="bold" font-size="38.345px">g</text>
		
			<text transform="matrix(-0.688 0.5802 -0.6447 -0.7644 1097.0723 842.6855)" fill="#64A3A1" font-family="'Georgia'" font-weight="bold" font-size="38.345px">)</text>
	</g>
	<g id="TEXT_OUTSIDE">
		<text transform="matrix(1 0 0 1 877.6348 1310.793)"><tspan x="0" y="0" fill="#002E57" font-family="'Verdana'" font-size="31.3732px">W</tspan><tspan x="30.9" y="0" fill="#002E57" font-family="'Verdana'" font-size="31.3732px">uli wuliluubw</tspan><tspan x="-85.8" y="37.6" fill="#383838" font-family="'Verdana'" font-size="31.3732px">(Upright Southern Cross)</tspan></text>
		<text transform="matrix(1 0 0 1 839.3164 152.3086)"><tspan x="0" y="0" fill="#002E57" font-family="'Verdana'" font-size="31.3732px">W</tspan><tspan x="30.9" y="0" fill="#002E57" font-family="'Verdana'" font-size="31.3732px">uli wulifasmughet</tspan><tspan x="91.8" y="37.6" fill="#383838" font-family="'Verdana'" font-size="31.3732px">(</tspan><tspan x="106.8" y="37.6" fill="#383838" font-family="'Verdana'" font-size="31.3732px">P</tspan><tspan x="125.7" y="37.6" fill="#383838" font-family="'Verdana'" font-size="31.3732px">olaris)</tspan></text>
		<text transform="matrix(1 0 0 1 1160.04 1256.1758)"><tspan x="0" y="0" fill="#002E57" font-family="'Verdana'" font-size="31.3732px">Machemeias </tspan><tspan x="212.8" y="0" fill="#383838" font-family="'Verdana'" font-size="31.3732px">(S</tspan><tspan x="250.1" y="0" fill="#383838" font-family="'Verdana'" font-size="31.3732px">o</tspan><tspan x="269.6" y="0" fill="#383838" font-family="'Verdana'" font-size="31.3732px">. Cross 45˚)</tspan></text>
		<text transform="matrix(1 0 0 1 1251.8369 1214.3477)"><tspan x="0" y="0" fill="#002E57" font-family="'Verdana'" font-size="31.3732px">Luubw</tspan><tspan x="106.3" y="0" fill="#383838" font-family="'Verdana'" font-size="31.3732px"> (S</tspan><tspan x="155.4" y="0" fill="#383838" font-family="'Verdana'" font-size="31.3732px">o</tspan><tspan x="174.9" y="0" fill="#383838" font-family="'Verdana'" font-size="31.3732px">. Cross rising)</tspan></text>
		<text transform="matrix(1 0 0 1 1401.7295 1071.4268)"><tspan x="0" y="0" fill="#002E57" font-family="'Verdana'" font-size="31.3732px">Mesario </tspan><tspan x="138.7" y="0" fill="#383838" font-family="'Verdana'" font-size="31.3732px">(Shaula)</tspan></text>
		<text transform="matrix(1 0 0 1 1454.0146 985.4443)"><tspan x="0" y="0" fill="#002E57" font-family="'Verdana'" font-size="31.3732px" letter-spacing="-2">T</tspan><tspan x="17.1" y="0" fill="#002E57" font-family="'Verdana'" font-size="31.3732px">umur </tspan><tspan x="115.6" y="0" fill="#383838" font-family="'Verdana'" font-size="31.3732px">(Six top stars of </tspan><tspan x="0" y="37.6" fill="#383838" font-family="'Verdana'" font-size="31.3732px">Scorpio inc. Antares)</tspan></text>
		<text transform="matrix(1 0 0 1 1491.1943 897.1318)"><tspan x="0" y="0" fill="#002E57" font-family="'Verdana'" font-size="31.3732px">Sa</tspan><tspan x="41.9" y="0" fill="#002E57" font-family="'Verdana'" font-size="31.3732px">r</tspan><tspan x="55.5" y="0" fill="#002E57" font-family="'Verdana'" font-size="31.3732px">apool </tspan><tspan x="156.3" y="0" fill="#383838" font-family="'Verdana'" font-size="31.3732px">(Corvus)</tspan></text>
		<text transform="matrix(1 0 0 1 1509.7861 643.8203)"><tspan x="0" y="0" fill="#002E57" font-family="'Verdana'" font-size="31.3732px">Mailap </tspan><tspan x="117.4" y="0" fill="#383838" font-family="'Verdana'" font-size="31.3732px">(Altair)</tspan></text>
		<text transform="matrix(1 0 0 1 1498.168 603.1514)"><tspan x="0" y="0" fill="#002E57" font-family="'Verdana'" font-size="31.3732px">P</tspan><tspan x="18.9" y="0" fill="#002E57" font-family="'Verdana'" font-size="31.3732px">aiifung </tspan><tspan x="142.6" y="0" fill="#383838" font-family="'Verdana'" font-size="31.3732px">(Gamma Aquilae)</tspan></text>
		<text transform="matrix(1 0 0 1 1480.7363 565.9648)"><tspan x="0" y="0" fill="#002E57" font-family="'Verdana'" font-size="31.3732px">Uul </tspan><tspan x="65.6" y="0" fill="#383838" font-family="'Verdana'" font-size="31.3732px">(Aldeba</tspan><tspan x="192" y="0" fill="#383838" font-family="'Verdana'" font-size="31.3732px">r</tspan><tspan x="205.6" y="0" fill="#383838" font-family="'Verdana'" font-size="31.3732px">an)</tspan></text>
		<text transform="matrix(1 0 0 1 1463.0859 511.3555)"><tspan x="0" y="0" fill="#002E57" font-family="'Verdana'" font-size="31.3732px">Marigaht </tspan><tspan x="156" y="0" fill="#383838" font-family="'Verdana'" font-size="31.3732px">(Makali’i)</tspan></text>
		<text transform="matrix(1 0 0 1 1398.0156 423.0479)"><tspan x="0" y="0" fill="#002E57" font-family="'Verdana'" font-size="31.3732px">Murn </tspan><tspan x="94.5" y="0" fill="#383838" font-family="'Verdana'" font-size="31.3732px">(</tspan><tspan x="109.5" y="0" fill="#383838" font-family="'Verdana'" font-size="31.3732px">V</tspan><tspan x="130.2" y="0" fill="#383838" font-family="'Verdana'" font-size="31.3732px">ega)</tspan></text>
		<text transform="matrix(1 0 0 1 1282.9814 316.147)"><tspan x="0" y="0" fill="#002E57" font-family="'Verdana'" font-size="31.3732px">W</tspan><tspan x="30.8" y="0" fill="#002E57" font-family="'Verdana'" font-size="31.3732px">ylur </tspan><tspan x="106.2" y="0" fill="#383838" font-family="'Verdana'" font-size="31.3732px">(Big Dipper)</tspan></text>
		<text transform="matrix(1 0 0 1 1659.458 337.061)"><tspan x="0" y="0" fill="#002E57" font-family="'Verdana'" font-size="31.3732px">Igulig </tspan><tspan x="105.9" y="0" fill="#383838" font-family="'Verdana'" font-size="31.3732px">(Whale)</tspan></text>
		<text transform="matrix(1 0 0 1 1143.5439 251.0781)"><tspan x="0" y="0" fill="#002E57" font-family="'Verdana'" font-size="31.3732px">Mailapailefung </tspan><tspan x="248.7" y="0" fill="#383838" font-family="'Verdana'" font-size="31.3732px">(</tspan><tspan x="263.7" y="0" fill="#383838" font-family="'Verdana'" font-size="31.3732px">K</tspan><tspan x="285.2" y="0" fill="#383838" font-family="'Verdana'" font-size="31.3732px">ochab/Little Dipper)</tspan></text>
		<text transform="matrix(1 0 0 1 1523.7314 739.1035)"><tspan x="0" y="0" fill="#002E57" font-family="'Verdana'" font-size="31.3732px">Earlier </tspan><tspan x="118.7" y="0" fill="#383838" font-family="'Verdana'" font-size="31.3732px">(Belt of Orion)</tspan></text>
		<text transform="matrix(1 0 0 1 1519.084 677.5205)"><tspan x="0" y="0" fill="#002E57" font-family="'Verdana'" font-size="31.3732px">P</tspan><tspan x="18.9" y="0" fill="#002E57" font-family="'Verdana'" font-size="31.3732px">aiyur </tspan><tspan x="113.9" y="0" fill="#383838" font-family="'Verdana'" font-size="31.3732px">(Beta Aquilae)</tspan></text>
		<text transform="matrix(1 0 0 1 392.082 1252.6924)"><tspan x="0" y="0" fill="#383838" font-family="'Verdana'" font-size="31.3732px">(S</tspan><tspan x="37.3" y="0" fill="#383838" font-family="'Verdana'" font-size="31.3732px">o</tspan><tspan x="56.8" y="0" fill="#383838" font-family="'Verdana'" font-size="31.3732px">. Cross 45˚) </tspan><tspan x="272.6" y="0" fill="#002E57" font-family="'Verdana'" font-size="31.3732px">Machemeias</tspan></text>
		<text transform="matrix(1 0 0 1 323.0005 1210.8633)"><tspan x="0" y="0" fill="#383838" font-family="'Verdana'" font-size="31.3732px">(S</tspan><tspan x="37.3" y="0" fill="#383838" font-family="'Verdana'" font-size="31.3732px">o</tspan><tspan x="56.8" y="0" fill="#383838" font-family="'Verdana'" font-size="31.3732px">. Cross setting) </tspan><tspan x="323.7" y="0" fill="#002E57" font-family="'Verdana'" font-size="31.3732px">Luubw</tspan></text>
		<text transform="matrix(1 0 0 1 472.7446 1071.4268)" fill="#002E57" font-family="'Verdana'" font-size="31.3732px">Mesario</text>
		<text transform="matrix(1 0 0 1 434.2026 985.4443)"><tspan x="0" y="0" fill="#002E57" font-family="'Verdana'" font-size="31.3732px" letter-spacing="-2">T</tspan><tspan x="17.1" y="0" fill="#002E57" font-family="'Verdana'" font-size="31.3732px">umur</tspan></text>
		<text transform="matrix(1 0 0 1 365.6328 897.1318)"><tspan x="0" y="0" fill="#002E57" font-family="'Verdana'" font-size="31.3732px">Sa</tspan><tspan x="41.9" y="0" fill="#002E57" font-family="'Verdana'" font-size="31.3732px">r</tspan><tspan x="55.5" y="0" fill="#002E57" font-family="'Verdana'" font-size="31.3732px">apool</tspan></text>
		<text transform="matrix(1 0 0 1 380.1152 643.8203)" fill="#002E57" font-family="'Verdana'" font-size="31.3732px">Mailap</text>
		<text transform="matrix(1 0 0 1 365.4004 603.1514)"><tspan x="0" y="0" fill="#002E57" font-family="'Verdana'" font-size="31.3732px">P</tspan><tspan x="18.9" y="0" fill="#002E57" font-family="'Verdana'" font-size="31.3732px">aiifung</tspan></text>
		<text transform="matrix(1 0 0 1 449.3672 565.9648)" fill="#002E57" font-family="'Verdana'" font-size="31.3732px">Uul</text>
		<text transform="matrix(1 0 0 1 386.6479 511.3555)" fill="#002E57" font-family="'Verdana'" font-size="31.3732px">Marigaht</text>
		<text transform="matrix(1 0 0 1 508.5576 423.0479)" fill="#002E57" font-family="'Verdana'" font-size="31.3732px">Murn</text>
		<text transform="matrix(1 0 0 1 608.4131 316.147)"><tspan x="0" y="0" fill="#002E57" font-family="'Verdana'" font-size="31.3732px">W</tspan><tspan x="30.8" y="0" fill="#002E57" font-family="'Verdana'" font-size="31.3732px">ylur</tspan></text>
		<text transform="matrix(1 0 0 1 369.3379 337.061)" fill="#002E57" font-family="'Verdana'" font-size="31.3732px">Igulig</text>
		<text transform="matrix(1 0 0 1 612.2827 251.0781)" fill="#002E57" font-family="'Verdana'" font-size="31.3732px">Mailapailefung</text>
		<text transform="matrix(1 0 0 1 361.4263 739.1035)" fill="#002E57" font-family="'Verdana'" font-size="31.3732px">Earlier</text>
		<text transform="matrix(1 0 0 1 377.7847 677.5205)"><tspan x="0" y="0" fill="#002E57" font-family="'Verdana'" font-size="31.3732px">P</tspan><tspan x="18.9" y="0" fill="#002E57" font-family="'Verdana'" font-size="31.3732px">aiyur</tspan></text>
	</g>
	<g id="Layer_3">
	</g>
</g>
</svg>
